HIERARCHY
ROOT Hips
{
  OFFSET 5.84602e-005 68.8428 3.50346
  CHANNELS 6 Xposition Yposition Zposition Zrotation Xrotation Yrotation
  JOINT Spine
  {
    OFFSET 0 8.597 -4.6522
    CHANNELS 3 Zrotation Xrotation Yrotation
    JOINT Spine1
    {
      OFFSET 0 7.8454 0.4098
      CHANNELS 3 Zrotation Xrotation Yrotation
      JOINT Spine2
      {
        OFFSET 0 9.7078 -2.1609
        CHANNELS 3 Zrotation Xrotation Yrotation
        JOINT Neck
        {
          OFFSET 0 21.8761 -0.4549
          CHANNELS 3 Zrotation Xrotation Yrotation
          JOINT Head
          {
            OFFSET 0 12.3537 3.3602
            CHANNELS 3 Zrotation Xrotation Yrotation
            End Site
            {
              OFFSET 0.0001 18.9506 0.5657
            }
          }
        }
        JOINT LeftShoulder
        {
          OFFSET 2.2086 21.1115 7.2329
          CHANNELS 3 Zrotation Xrotation Yrotation
          JOINT LeftArm
          {
            OFFSET 13.1193 3.0282 -4.8998
            CHANNELS 3 Zrotation Xrotation Yrotation
            JOINT LeftForeArm
            {
              OFFSET 27.4081 -0.0973053 -0.2375
              CHANNELS 3 Zrotation Xrotation Yrotation
              JOINT LeftHand
              {
                OFFSET 22.8641 0.0662994 -0.1369
                CHANNELS 3 Zrotation Xrotation Yrotation
                JOINT LeftHandIndex1
                {
                  OFFSET 8.8614 0.775009 2.4612
                  CHANNELS 3 Zrotation Xrotation Yrotation
                  JOINT LeftHandIndex2
                  {
                    OFFSET 3.3146 -0.808304 0.5841
                    CHANNELS 3 Zrotation Xrotation Yrotation
                    JOINT LeftHandIndex3
                    {
                      OFFSET 2.2628 -0.552002 0.3989
                      CHANNELS 3 Zrotation Xrotation Yrotation
                      End Site
                      {
                        OFFSET 1.6102 -0.4807 0.2612
                      }
                    }
                  }
                }
                JOINT LeftHandMiddle1
                {
                  OFFSET 8.9937 0.895004 0.2143
                  CHANNELS 3 Zrotation Xrotation Yrotation
                  JOINT LeftHandMiddle2
                  {
                    OFFSET 4.0984 0.0113983 -0.0242
                    CHANNELS 3 Zrotation Xrotation Yrotation
                    JOINT LeftHandMiddle3
                    {
                      OFFSET 2.2716 0.00689697 -0.0138001
                      CHANNELS 3 Zrotation Xrotation Yrotation
                      End Site
                      {
                        OFFSET 2.0404 -0.1441 0.0027
                      }
                    }
                  }
                }
                JOINT LeftHandRing1
                {
                  OFFSET 8.5234 0.597198 -2.0164
                  CHANNELS 3 Zrotation Xrotation Yrotation
                  JOINT LeftHandRing2
                  {
                    OFFSET 3.7188 -0.188293 -0.2328
                    CHANNELS 3 Zrotation Xrotation Yrotation
                    JOINT LeftHandRing3
                    {
                      OFFSET 2.1191 -0.106598 -0.1332
                      CHANNELS 3 Zrotation Xrotation Yrotation
                      End Site
                      {
                        OFFSET 1.8737 -0.2304 -0.0886
                      }
                    }
                  }
                }
                JOINT LeftHandPinky1
                {
                  OFFSET 7.9094 -0.601089 -3.4825
                  CHANNELS 3 Zrotation Xrotation Yrotation
                  JOINT LeftHandPinky2
                  {
                    OFFSET 2.2874 -0.477005 -0.6314
                    CHANNELS 3 Zrotation Xrotation Yrotation
                    JOINT LeftHandPinky3
                    {
                      OFFSET 1.6774 -0.349396 -0.4633
                      CHANNELS 3 Zrotation Xrotation Yrotation
                      End Site
                      {
                        OFFSET 1.4888 -0.4091 -0.3416
                      }
                    }
                  }
                }
                JOINT LeftHandThumb1
                {
                  OFFSET 1.833 -1.3875 1.3896
                  CHANNELS 3 Zrotation Xrotation Yrotation
                  JOINT LeftHandThumb2
                  {
                    OFFSET 3.4129 -1.121 2.5732
                    CHANNELS 3 Zrotation Xrotation Yrotation
                    JOINT LeftHandThumb3
                    {
                      OFFSET 2.2474 -0.804199 1.6192
                      CHANNELS 3 Zrotation Xrotation Yrotation
                      End Site
                      {
                        OFFSET 1.6527 -0.5689 1.1317
                      }
                    }
                  }
                }
              }
            }
          }
        }
        JOINT RightShoulder
        {
          OFFSET -2.2086 21.1115 7.2329
          CHANNELS 3 Zrotation Xrotation Yrotation
          JOINT RightArm
          {
            OFFSET -13.1216 3.0287 -4.9007
            CHANNELS 3 Zrotation Xrotation Yrotation
            JOINT RightForeArm
            {
              OFFSET -27.4081 -0.0973053 -0.2375
              CHANNELS 3 Zrotation Xrotation Yrotation
              JOINT RightHand
              {
                OFFSET -22.8641 0.0664063 -0.1369
                CHANNELS 3 Zrotation Xrotation Yrotation
                JOINT RightHandIndex1
                {
                  OFFSET -8.8614 0.774994 2.4612
                  CHANNELS 3 Zrotation Xrotation Yrotation
                  JOINT RightHandIndex2
                  {
                    OFFSET -3.3146 -0.808304 0.5841
                    CHANNELS 3 Zrotation Xrotation Yrotation
                    JOINT RightHandIndex3
                    {
                      OFFSET -2.2628 -0.552002 0.3989
                      CHANNELS 3 Zrotation Xrotation Yrotation
                      End Site
                      {
                        OFFSET -1.6102 -0.4807 0.2612
                      }
                    }
                  }
                }
                JOINT RightHandMiddle1
                {
                  OFFSET -8.9937 0.894989 0.2143
                  CHANNELS 3 Zrotation Xrotation Yrotation
                  JOINT RightHandMiddle2
                  {
                    OFFSET -4.0984 0.0113983 -0.0242
                    CHANNELS 3 Zrotation Xrotation Yrotation
                    JOINT RightHandMiddle3
                    {
                      OFFSET -2.2716 0.00691223 -0.0138001
                      CHANNELS 3 Zrotation Xrotation Yrotation
                      End Site
                      {
                        OFFSET -2.0404 -0.1441 0.0027
                      }
                    }
                  }
                }
                JOINT RightHandRing1
                {
                  OFFSET -8.5234 0.597198 -2.0164
                  CHANNELS 3 Zrotation Xrotation Yrotation
                  JOINT RightHandRing2
                  {
                    OFFSET -3.7188 -0.188309 -0.2328
                    CHANNELS 3 Zrotation Xrotation Yrotation
                    JOINT RightHandRing3
                    {
                      OFFSET -2.1191 -0.106598 -0.1332
                      CHANNELS 3 Zrotation Xrotation Yrotation
                      End Site
                      {
                        OFFSET -1.8737 -0.2304 -0.0886
                      }
                    }
                  }
                }
                JOINT RightHandPinky1
                {
                  OFFSET -7.9094 -0.601105 -3.4825
                  CHANNELS 3 Zrotation Xrotation Yrotation
                  JOINT RightHandPinky2
                  {
                    OFFSET -2.2874 -0.477005 -0.6314
                    CHANNELS 3 Zrotation Xrotation Yrotation
                    JOINT RightHandPinky3
                    {
                      OFFSET -1.6774 -0.349396 -0.4633
                      CHANNELS 3 Zrotation Xrotation Yrotation
                      End Site
                      {
                        OFFSET -1.4888 -0.4091 -0.3416
                      }
                    }
                  }
                }
                JOINT RightHandThumb1
                {
                  OFFSET -1.833 -1.38751 1.3896
                  CHANNELS 3 Zrotation Xrotation Yrotation
                  JOINT RightHandThumb2
                  {
                    OFFSET -3.41299 -1.12099 2.5732
                    CHANNELS 3 Zrotation Xrotation Yrotation
                    JOINT RightHandThumb3
                    {
                      OFFSET -2.24741 -0.804108 1.6192
                      CHANNELS 3 Zrotation Xrotation Yrotation
                      End Site
                      {
                        OFFSET -1.6527 -0.5689 1.1317
                      }
                    }
                  }
                }
              }
            }
          }
        }
      }
    }
  }
  JOINT RightUpLeg
  {
    OFFSET -9.1966 3.8861 -0.7581
    CHANNELS 3 Zrotation Xrotation Yrotation
    JOINT RightLeg
    {
      OFFSET -0.7359 -41.0265 0
      CHANNELS 3 Zrotation Xrotation Yrotation
      JOINT RightFoot
      {
        OFFSET 0 -40.2855 0
        CHANNELS 3 Zrotation Xrotation Yrotation
        JOINT RightToeBase
        {
          OFFSET 0 -5.6122 11.7359
          CHANNELS 3 Zrotation Xrotation Yrotation
          End Site
          {
            OFFSET 0 0 7.8731
          }
        }
      }
    }
  }
  JOINT LeftUpLeg
  {
    OFFSET 9.1965 3.8864 -0.7581
    CHANNELS 3 Zrotation Xrotation Yrotation
    JOINT LeftLeg
    {
      OFFSET 0.7359 -41.0268 0
      CHANNELS 3 Zrotation Xrotation Yrotation
      JOINT LeftFoot
      {
        OFFSET 0 -40.2855 0
        CHANNELS 3 Zrotation Xrotation Yrotation
        JOINT LeftToeBase
        {
          OFFSET 0 -5.6122 11.7359
          CHANNELS 3 Zrotation Xrotation Yrotation
          End Site
          {
            OFFSET 0 0 7.8731
          }
        }
      }
    }
  }
}
MOTION
Frames:	6
Frame Time:	0.0333333
5.38424e-005 5.98085 -12.6843 0 3.99975 -0 1.43921e-007 17.3808 -3.21681e-007 4.2807e-007 34.7614 -7.47696e-007 4.2807e-007 34.7614 -7.47696e-007 2.83246e-012 -27.0004 7.61816e-013 -0.528312 -22.3138 20.393 1.05233 -9.94678 6.08845 -76.2742 -5.60846 -115.273 -2.7846 -10.14 -16.0074 1.75648e-006 14.9982 1.98336e-006 7.95139e-015 0 -9.54166e-015 -5.55658e-007 1.95512e-006 -2.32941e-006 -4.77083e-015 6.36111e-015 -0 7.95139e-015 0 -9.54166e-015 -0.0146511 -9.04406e-005 -3.25972e-006 1.76556e-031 -1.59028e-015 6.36111e-015 7.95139e-015 0 -9.54166e-015 -0.018774 -0.0011724 5.59853e-005 1.13247e-006 -9.55214e-007 1.62287e-006 7.95139e-015 0 -9.54166e-015 -0.0122975 -0.00325582 0.000673585 4.77083e-015 -7.95139e-015 6.36111e-015 7.95139e-015 0 -9.54166e-015 -5.55658e-007 1.95512e-006 -2.32941e-006 -4.77083e-015 6.36111e-015 -0 -1.05617 -9.94655 -6.09229 76.2713 -5.62531 115.256 -6.07575 19.0911 18.0217 -4.15218 0.335666 2.11862 -3.28273e-006 5.64602e-007 1.16109e-006 -3.72392e-006 -3.5483e-008 1.56946e-006 -3.72392e-006 -3.5483e-008 1.56946e-006 -3.28273e-006 5.64602e-007 1.16109e-006 0.0150138 -9.18345e-005 6.10664e-006 -3.72374e-006 -3.52783e-008 1.56947e-006 -3.28273e-006 5.64602e-007 1.16109e-006 0.0189923 -0.00119361 -6.41315e-005 -3.72367e-006 -3.52393e-008 1.5695e-006 -3.28273e-006 5.64602e-007 1.16109e-006 0.0122315 -0.00323886 -0.000667035 -3.72373e-006 -3.5376e-008 1.56956e-006 -3.28273e-006 5.64602e-007 1.16109e-006 -3.72392e-006 -3.5483e-008 1.56946e-006 -3.72392e-006 -3.5483e-008 1.56946e-006 -30.4107 -55.8396 -7.80096 179.892 34.7961 172.085 3.36833 60.854 -7.29649 1.80131e-007 2.52611e-007 7.92851e-007 30.4018 -55.8395 7.79257 -179.892 34.7963 -172.085 -3.36858 60.8533 7.29673 3.29886e-006 1.33083e-006 -2.15337e-007 
5.38424e-005 5.98085 -12.6843 0 3.99975 -0 1.43556e-007 17.4273 -3.2205e-007 4.27999e-007 34.8544 -7.48881e-007 4.28e-007 34.8545 -7.48882e-007 1.6475e-011 -27.0001 2.34398e-012 -0.484131 -22.6158 21.0115 1.05233 -9.94675 6.08845 -76.3196 -5.70252 -115.731 -2.73927 -9.86278 -16.1352 1.1145e-005 14.9982 5.10583e-006 -0 -4.77083e-015 -0 -5.56431e-007 1.94853e-006 -2.32697e-006 -6.36111e-015 3.18055e-015 9.54166e-015 -0 -4.77083e-015 -0 -0.0146032 -8.36118e-005 -1.46766e-006 -1.13652e-006 9.19726e-007 -1.58831e-006 -0 -4.77083e-015 -0 -0.0187368 -0.00117932 6.2048e-005 4.77083e-015 -3.18055e-015 3.18055e-015 -0 -4.77083e-015 -0 -0.0123197 -0.00326227 0.000684834 3.18055e-015 6.36111e-015 -0 -0 -4.77083e-015 -0 -5.56431e-007 1.94853e-006 -2.32697e-006 -6.36111e-015 3.18055e-015 9.54166e-015 -1.05616 -9.94653 -6.09229 76.3168 -5.71968 115.714 -6.07574 19.0911 18.0217 -4.28802 1.19304 2.21164 2.84695e-006 -1.18255e-006 -7.37203e-007 -8.91431e-007 -1.20062e-006 8.07325e-007 2.84695e-006 -1.18255e-006 -7.37203e-007 2.84695e-006 -1.18255e-006 -7.37203e-007 0.0150069 -9.52946e-005 -6.97132e-006 2.84675e-006 -1.18265e-006 -7.37051e-007 2.84695e-006 -1.18255e-006 -7.37203e-007 0.0190086 -0.00118811 -5.85964e-005 2.84669e-006 -1.18266e-006 -7.37036e-007 2.84695e-006 -1.18255e-006 -7.37203e-007 0.0122566 -0.00324502 -0.000676706 1.49917e-006 -3.13102e-007 -2.11426e-006 2.84695e-006 -1.18255e-006 -7.37203e-007 -8.91431e-007 -1.20062e-006 8.07325e-007 2.84695e-006 -1.18255e-006 -7.37203e-007 -30.4107 -55.8396 -7.80096 179.892 34.7961 172.085 3.36833 60.854 -7.29649 1.80131e-007 2.52611e-007 7.92851e-007 30.4018 -55.8395 7.79257 -179.892 34.7963 -172.085 -3.36858 60.8533 7.29673 3.29886e-006 1.33083e-006 -2.15337e-007 
5.38424e-005 5.98085 -12.6843 0 3.99975 -0 1.43191e-007 17.4737 -3.22417e-007 4.27929e-007 34.9475 -7.50067e-007 4.27929e-007 34.9474 -7.50067e-007 1.90887e-011 -27.0003 3.62364e-012 -0.436362 -22.9171 21.6311 1.05233 -9.94675 6.08845 -76.3659 -5.79619 -116.189 -2.69337 -9.58568 -16.2631 9.84307e-006 14.9982 1.43734e-006 4.77083e-015 -4.77083e-015 -3.18055e-015 -1.59028e-015 0 9.54166e-015 1.59028e-015 -1.59028e-015 1.27222e-014 4.77083e-015 -4.77083e-015 -3.18055e-015 -0.0146168 -8.59625e-005 -3.63084e-007 3.18055e-015 -4.77083e-015 -6.36111e-015 4.77083e-015 -4.77083e-015 -3.18055e-015 -0.0187217 -0.00117093 6.06372e-005 1.59028e-015 -4.77083e-015 -1.59028e-014 4.77083e-015 -4.77083e-015 -3.18055e-015 -0.0122812 -0.0032515 0.000675802 -4.77083e-015 4.77083e-015 6.36111e-015 4.77083e-015 -4.77083e-015 -3.18055e-015 -1.59028e-015 0 9.54166e-015 1.59028e-015 -1.59028e-015 1.27222e-014 -1.05616 -9.94652 -6.09229 76.3631 -5.81361 116.171 -6.07576 19.0911 18.0217 -4.42509 2.04885 2.30658 1.95184e-006 -2.40126e-006 7.61629e-008 2.85222e-006 -1.20025e-006 -7.21682e-007 -4.50189e-007 -6.00507e-007 3.98922e-007 1.95184e-006 -2.40126e-006 7.61629e-008 0.0149801 -8.9416e-005 8.28429e-006 -4.502e-007 -6.00455e-007 3.99001e-007 1.95184e-006 -2.40126e-006 7.61629e-008 0.0189965 -0.00118712 -4.87057e-005 -4.50198e-007 -6.0044e-007 3.99027e-007 1.95184e-006 -2.40126e-006 7.61629e-008 0.0122945 -0.00325279 -0.000687452 -4.50183e-007 -6.00465e-007 3.99e-007 1.95184e-006 -2.40126e-006 7.61629e-008 2.85222e-006 -1.20025e-006 -7.21682e-007 -4.50189e-007 -6.00507e-007 3.98922e-007 -30.4107 -55.8396 -7.80096 179.892 34.7961 172.085 3.36833 60.854 -7.29649 1.80131e-007 2.52611e-007 7.92851e-007 30.4018 -55.8395 7.79257 -179.892 34.7963 -172.085 -3.36858 60.8533 7.29673 3.29886e-006 1.33083e-006 -2.15337e-007 
5.38424e-005 5.98085 -12.6843 0 3.99975 -0 1.42826e-007 17.5203 -3.22784e-007 4.27859e-007 35.0404 -7.51252e-007 4.27859e-007 35.0405 -7.51252e-007 2.05815e-011 -27.0004 4.8529e-012 -0.384997 -23.2175 22.2516 1.05233 -9.94676 6.08845 -76.4128 -5.88941 -116.647 -2.64692 -9.30875 -16.391 -2.30511e-006 14.9982 -2.83563e-006 -6.36111e-015 3.18055e-015 1.27222e-014 -3.18055e-015 4.77083e-015 1.59028e-014 -1.59028e-015 -6.36111e-015 3.18055e-015 -6.36111e-015 3.18055e-015 1.27222e-014 -0.0146126 -8.79253e-005 -1.8824e-006 -1.14401e-006 8.49071e-007 -1.51916e-006 -6.36111e-015 3.18055e-015 1.27222e-014 -0.018731 -0.00117305 6.27115e-005 1.1436e-006 -8.49238e-007 1.51913e-006 -6.36111e-015 3.18055e-015 1.27222e-014 -0.012315 -0.00325592 0.000682487 -1.59028e-015 1.59028e-015 -6.36111e-015 -6.36111e-015 3.18055e-015 1.27222e-014 -3.18055e-015 4.77083e-015 1.59028e-014 -1.59028e-015 -6.36111e-015 3.18055e-015 -1.05616 -9.94653 -6.09229 76.41 -5.90716 116.629 -6.07573 19.0911 18.0217 -4.56345 2.90298 2.40344 -9.09228e-007 -1.20136e-006 7.88299e-007 2.40272e-006 -1.81846e-006 -3.1201e-007 -9.09228e-007 -1.20136e-006 7.88299e-007 -9.09228e-007 -1.20136e-006 7.88299e-007 0.0149962 -9.48326e-005 -4.81153e-007 -9.09248e-007 -1.20126e-006 7.88457e-007 -9.09228e-007 -1.20136e-006 7.88299e-007 0.0190273 -0.00119568 -5.24324e-005 -9.09245e-007 -1.20123e-006 7.88508e-007 -9.09228e-007 -1.20136e-006 7.88299e-007 0.0122402 -0.00324084 -0.000675834 -9.09215e-007 -1.20128e-006 7.88454e-007 -9.09228e-007 -1.20136e-006 7.88299e-007 2.40272e-006 -1.81846e-006 -3.1201e-007 -9.09228e-007 -1.20136e-006 7.88299e-007 -30.4107 -55.8396 -7.80096 179.892 34.7961 172.085 3.36833 60.854 -7.29649 1.80131e-007 2.52611e-007 7.92851e-007 30.4018 -55.8395 7.79257 -179.892 34.7963 -172.085 -3.36858 60.8533 7.29673 3.29886e-006 1.33083e-006 -2.15337e-007 
5.38424e-005 5.98085 -12.6843 0 3.99975 -0 1.4246e-007 17.5668 -3.2315e-007 4.27789e-007 35.1334 -7.52437e-007 4.27789e-007 35.1334 -7.52436e-007 2.13995e-011 -27.0005 4.09839e-012 -0.330031 -23.5171 22.8733 1.05233 -9.94673 6.08845 -76.4605 -5.98223 -117.105 -2.59983 -9.032 -16.5191 -1.17318e-005 14.9982 7.58288e-006 -5.32553e-006 4.24539e-006 -4.22695e-006 -1.14937e-006 8.13539e-007 -1.48472e-006 -5.5874e-007 1.92844e-006 -2.31952e-006 -5.32553e-006 4.24539e-006 -4.22695e-006 -0.0146119 -9.07704e-005 9.90099e-007 -5.5855e-007 1.92874e-006 -2.31928e-006 -5.32553e-006 4.24539e-006 -4.22695e-006 -0.0187463 -0.00117435 6.12817e-005 -5.58517e-007 1.92884e-006 -2.3192e-006 -5.32553e-006 4.24539e-006 -4.22695e-006 -0.012341 -0.00326673 0.000683809 5.89508e-007 1.1147e-006 -8.34637e-007 -5.32553e-006 4.24539e-006 -4.22695e-006 -1.14937e-006 8.13539e-007 -1.48472e-006 -5.5874e-007 1.92844e-006 -2.31952e-006 -1.05617 -9.94652 -6.09229 76.4577 -6.00027 117.087 -6.07574 19.0911 18.0217 -4.70312 3.75534 2.5023 6.36111e-015 4.77083e-015 -3.18055e-015 -4.58989e-007 -6.00829e-007 3.89344e-007 3.18055e-015 6.36111e-015 -6.36111e-015 6.36111e-015 4.77083e-015 -3.18055e-015 0.0149855 -8.95985e-005 4.02508e-006 3.18055e-015 -1.43125e-014 -0 6.36111e-015 4.77083e-015 -3.18055e-015 0.019002 -0.00118768 -5.02644e-005 5.29669e-031 9.54166e-015 -3.18055e-015 6.36111e-015 4.77083e-015 -3.18055e-015 0.0122819 -0.00325394 -0.000684155 -2.64834e-031 4.77083e-015 3.18055e-015 6.36111e-015 4.77083e-015 -3.18055e-015 -4.58989e-007 -6.00829e-007 3.89344e-007 3.18055e-015 6.36111e-015 -6.36111e-015 -30.4107 -55.8396 -7.80096 179.892 34.7961 172.085 3.36833 60.854 -7.29649 1.80131e-007 2.52611e-007 7.92851e-007 30.4018 -55.8395 7.79257 -179.892 34.7963 -172.085 -3.36858 60.8533 7.29673 3.29886e-006 1.33083e-006 -2.15337e-007 
5.38424e-005 5.98085 -12.6843 0 3.99975 -0 1.42094e-007 17.6133 -3.23515e-007 4.27719e-007 35.2264 -7.53621e-007 4.27719e-007 35.2264 -7.53621e-007 1.65597e-011 -27.0001 2.283e-012 -0.271463 -23.8158 23.4959 1.05233 -9.94675 6.08845 -76.5089 -6.07458 -117.563 -2.55221 -8.75541 -16.6473 -9.91006e-006 14.9982 8.53944e-006 -4.77083e-015 -4.77083e-015 3.18055e-015 7.56403e-007 -1.1585e-006 -9.60826e-007 -3.18055e-015 -6.36111e-015 -3.18055e-015 -4.77083e-015 -4.77083e-015 3.18055e-015 -0.0146164 -8.89957e-005 2.12001e-006 -8.82781e-031 7.95139e-015 6.36111e-015 -4.77083e-015 -4.77083e-015 3.18055e-015 -0.018744 -0.00117285 5.74038e-005 -1.59028e-015 1.59028e-015 -3.18055e-015 -4.77083e-015 -4.77083e-015 3.18055e-015 -0.0122824 -0.00325134 0.000680061 -1.59028e-015 7.95139e-015 1.27222e-014 -4.77083e-015 -4.77083e-015 3.18055e-015 7.56403e-007 -1.1585e-006 -9.60826e-007 -3.18055e-015 -6.36111e-015 -3.18055e-015 -1.05617 -9.94653 -6.09229 76.5062 -6.09295 117.544 -6.07574 19.0911 18.0217 -4.84414 4.6058 2.60312 -3.33044e-006 6.51347e-007 1.05964e-006 -4.72038e-006 -1.15151e-006 2.21316e-006 -9.26627e-007 -1.20191e-006 7.69016e-007 -3.33044e-006 6.51347e-007 1.05964e-006 0.0149964 -8.92026e-005 5.67766e-007 -9.26645e-007 -1.20181e-006 7.69174e-007 -3.33044e-006 6.51347e-007 1.05964e-006 0.0190145 -0.00118865 -4.88291e-005 -9.26642e-007 -1.20178e-006 7.69225e-007 -3.33044e-006 6.51347e-007 1.05964e-006 0.0122678 -0.00324777 -0.000679005 -9.26613e-007 -1.20183e-006 7.69172e-007 -3.33044e-006 6.51347e-007 1.05964e-006 -4.72038e-006 -1.15151e-006 2.21316e-006 -9.26627e-007 -1.20191e-006 7.69016e-007 -30.4107 -55.8396 -7.80096 179.892 34.7961 172.085 3.36833 60.854 -7.29649 1.80131e-007 2.52611e-007 7.92851e-007 30.4018 -55.8395 7.79257 -179.892 34.7963 -172.085 -3.36858 60.8533 7.29673 3.29886e-006 1.33083e-006 -2.15337e-007 
